<svg width="32" height="32" viewBox="0 0 32 32" fill="none" xmlns="http://www.w3.org/2000/svg">
<path d="M16 7.72419C17.4841 8.79859 18.9932 10.0823 20.4554 11.5445C21.9177 13.0067 23.2014 14.5159 24.2758 16.0001M16 7.72419C14.5159 8.79859 13.0068 10.0823 11.5446 11.5445C10.0823 13.0068 8.7986 14.5159 7.72419 16.0001M16 7.72419C20.7599 4.27839 25.263 2.98544 27.1388 4.86126C29.0146 6.73708 27.7216 11.2402 24.2758 16.0001M24.2758 16.0001C27.7215 20.7599 29.0144 25.2629 27.1386 27.1387C25.7479 28.5295 22.913 28.1784 19.6 26.4995M24.2758 16.0001C23.2014 17.4842 21.9177 18.9933 20.4555 20.4555C18.9933 21.9178 17.4842 23.2015 16 24.2759M16 24.2759C14.5158 23.2015 13.0067 21.9177 11.5445 20.4555C10.0823 18.9933 8.79858 17.4842 7.72419 16.0001M16 24.2759C11.2402 27.7216 6.73716 29.0146 4.86136 27.1388C2.98556 25.263 4.27847 20.7599 7.72419 16.0001M7.72419 16.0001C4.27838 11.2402 2.98542 6.73707 4.86124 4.86124C6.25199 3.47048 9.08695 3.82158 12.4 5.5005" stroke="#4F46F4" strokeWidth="2" strokeLinecap="round"/>
<circle opacity="0.4" cx="15.9997" cy="16.0002" r="2.66667" stroke="#4F46F4" strokeWidth="2"/>
</svg>
