<svg width="701" height="480" viewBox="0 0 701 480" fill="none" xmlns="http://www.w3.org/2000/svg">
<g clip-path="url(#clip0_6001_32900)">
<path d="M0 16C0 7.16346 7.16344 0 16 0H685C693.837 0 701 7.16344 701 16V464C701 472.837 693.837 480 685 480H16C7.16344 480 0 472.837 0 464V16Z" fill="#3B1E67"/>
<path fill-rule="evenodd" clip-rule="evenodd" d="M314.044 0H480.883L372.82 143.011H575.254L216.47 500.472L325.879 259.436H124.625L314.044 0Z" fill="#6634B3" fill-opacity="0.6"/>
</g>
<defs>
<clipPath id="clip0_6001_32900">
<path d="M0 16C0 7.16346 7.16344 0 16 0H685C693.837 0 701 7.16344 701 16V464C701 472.837 693.837 480 685 480H16C7.16344 480 0 472.837 0 464V16Z" fill="white"/>
</clipPath>
</defs>
</svg>
